<?xml version="1.0" encoding="UTF-8"?>
<svg xmlns="http://www.w3.org/2000/svg" viewBox="0 0 30 30" width="30px" height="30px">
<g id="surface5430679">
<path style=" stroke:none;fill-rule:nonzero;fill:rgb(14.117648%,16.862746%,23.921569%);fill-opacity:1;" d="M 10.3125 6.5625 C 5.652344 6.5625 1.875 10.339844 1.875 15 C 1.875 19.660156 5.652344 23.4375 10.3125 23.4375 C 14.972656 23.4375 18.75 19.660156 18.75 15 C 18.75 14.421875 18.6875 13.855469 18.578125 13.3125 L 18.53125 13.125 L 10.3125 13.125 L 10.3125 15.9375 L 15.9375 15.9375 C 15.488281 18.597656 13.097656 20.625 10.3125 20.625 C 7.203125 20.625 4.6875 18.109375 4.6875 15 C 4.6875 11.890625 7.203125 9.375 10.3125 9.375 C 11.71875 9.375 13 9.894531 13.988281 10.75 L 16.003906 8.773438 C 14.503906 7.402344 12.507812 6.5625 10.3125 6.5625 Z M 23.4375 10.3125 L 23.4375 13.125 L 20.625 13.125 L 20.625 15 L 23.4375 15 L 23.4375 17.8125 L 25.3125 17.8125 L 25.3125 15 L 28.125 15 L 28.125 13.125 L 25.3125 13.125 L 25.3125 10.3125 Z M 23.4375 10.3125 "/>
</g>
</svg>
